SplineFontDB: 3.2
FontName: font1
FullName: font1
FamilyName: TinSvagelj
Weight: Regular
Copyright: 
Version: 
ItalicAngle: 0
UnderlinePosition: 0
UnderlineWidth: 0
Ascent: 819
Descent: 205
InvalidEm: 0
LayerCount: 2
Layer: 0 0 "Back" 1
Layer: 1 0 "Fore" 0
HasVMetrics: 1
XUID: [1021 622 558025525 10171776]
OS2Version: 0
OS2_WeightWidthSlopeOnly: 0
OS2_UseTypoMetrics: 0
CreationTime: 1733911281
ModificationTime: 1733912790
PfmFamily: 17
TTFWeight: 400
TTFWidth: 5
LineGap: 92
VLineGap: 92
OS2TypoAscent: 0
OS2TypoAOffset: 1
OS2TypoDescent: 0
OS2TypoDOffset: 1
OS2TypoLinegap: 92
OS2WinAscent: 0
OS2WinAOffset: 1
OS2WinDescent: 0
OS2WinDOffset: 1
HheadAscent: 0
HheadAOffset: 1
HheadDescent: 0
HheadDOffset: 1
OS2Vendor: 'PfEd'
Lookup: 258 0 0 "'kern' Horizontal Kerning in Latin lookup 0" { "'kern' Horizontal Kerning in Latin lookup 0 subtable"  } ['kern' ('latn' <'dflt' > ) ]
MarkAttachClasses: 1
DEI: 91125
Encoding: UnicodeFull
UnicodeInterp: none
NameList: AGL For New Fonts
DisplaySize: -48
AntiAlias: 1
FitToEm: 1
WinInfo: 0 31 14
BeginPrivate: 0
EndPrivate
BeginChars: 1114113 55

StartChar: .notdef
Encoding: 0 0 0
Width: 560
VWidth: 1048
Flags: HW
LayerCount: 2
Fore
SplineSet
549 709 m 5
 324 649 l 1
 358 22 l 1
 251 22 l 1
 248 404 l 1
 27 695 l 1
 27 818 l 1
 549 817 l 1
 549 709 l 5
EndSplineSet
Validated: 1
EndChar

StartChar: 
Encoding: 65 65 1
Width: 552
VWidth: 1048
Flags: HW
HStem: 214 38<0.5 23.8712 151.394 181.5 349.5 375.036 528.756 552.5> 790 20G<238.5 325.5>
LayerCount: 2
Fore
SplineSet
50.5 237 m 1
 238.5 790 l 1
 280.5 810 l 1
 325.5 790 l 1
 499.5 236 l 1
 552.5 252 l 1
 552.5 214 l 1
 349.5 214 l 1
 349.5 252 l 1
 406.5 236 l 1
 375.5 373 l 1
 264.5 390 l 1
 152.5 373 l 1
 118.5 237 l 1
 181.5 252 l 1
 181.5 214 l 1
 0.5 214 l 1
 -0.5 252 l 1
 50.5 237 l 1
361.5 418 m 1
 285.5 667 l 1
 268.5 731 l 1
 249.5 665 l 1
 166.5 418 l 1
 212.5 405 l 1
 261.5 427 l 1
 315.5 406 l 1
 361.5 418 l 1
EndSplineSet
Validated: 2621441
EndChar

StartChar: 
Encoding: 66 66 2
Width: 552
VWidth: 1048
Flags: HW
HStem: 210 42<44.5 80.3865 190.924 367.696> 489 44<197.852 348.338> 752 40<45.5 59.756 190.5 350.076>
VStem: 108.5 82<254.055 486.159 534.616 748> 385.5 82<581.625 720.936> 417.5 90<299.415 452.788>
LayerCount: 2
Fore
SplineSet
108.5 241 m 1xf8
 108.5 766 l 1
 45.5 748 l 1
 45.5 786 l 1
 149.5 786 l 2
 172.5 786 193.5 787 212.5 789 c 0
 231.5 791 251.5 792 270.5 792 c 0
 319.5 792 358.5 787 387.5 776 c 0
 416.5 766 436.5 751 448.5 732 c 0
 461.5 713 467.5 690 467.5 663 c 0xf8
 467.5 627 457.5 595 436.5 569 c 1
 378.5 542 382.5 546 347.5 516 c 1
 410.5 508 392.5 519 465.5 485 c 1
 493.5 461 507.5 428 507.5 387 c 0xf4
 507.5 364 504.5 341 496.5 320 c 0
 488.5 299 475.5 281 457.5 264 c 0
 439.5 248 415.5 234 385.5 225 c 0
 355.5 216 316.5 210 271.5 210 c 0
 256.5 210 244.5 211 232.5 212 c 0
 220.5 213 208.5 213 195.5 214 c 0
 182.5 215 166.5 215 147.5 215 c 2
 44.5 215 l 1
 44.5 253 l 1
 108.5 241 l 1xf8
188.5 564 m 1
 195.5 563 206.5 533 217.5 533 c 2
 249.5 533 l 2
 260.5 533 269.5 534 275.5 534 c 0
 311.5 534 339.5 544 357.5 564 c 0
 375.5 584 385.5 612 385.5 648 c 0
 385.5 683 376.5 709 358.5 726 c 0
 340.5 743 308.5 752 262.5 752 c 0
 247.5 752 233.5 752 220.5 751 c 0
 207.5 750 197.5 748 190.5 748 c 1
 188.5 564 l 1
190.5 258 m 1
 199.5 255 211.5 254 227.5 253 c 0
 243.5 252 257.5 252 269.5 252 c 0
 323.5 252 361.5 263 383.5 285 c 0
 405.5 307 417.5 338 417.5 376 c 0xf4
 417.5 415 407.5 444 386.5 462 c 0
 366.5 480 334.5 489 289.5 489 c 2
 256.5 489 l 2
 243.5 489 230.5 488 218.5 488 c 0
 206.5 488 196.5 460 189.5 459 c 1
 190.5 258 l 1
EndSplineSet
Validated: 2621441
EndChar

StartChar: 
Encoding: 67 67 3
Width: 552
VWidth: 1048
Flags: HW
HStem: 223 42<241.99 426.741> 767 42<238.843 452.32>
VStem: 51.5 54<412.071 619.101> 436.5 51<648 666.176>
LayerCount: 2
Fore
SplineSet
316.5 223 m 0
 259.5 223 210.5 235 171.5 259 c 0
 132.5 283 102.5 316 81.5 360 c 0
 61.5 404 51.5 455 51.5 514 c 0
 51.5 558 58.5 597 72.5 633 c 0
 86.5 669 106.5 701 131.5 727 c 0
 156.5 753 185.5 774 219.5 788 c 0
 253.5 802 289.5 809 328.5 809 c 0
 363.5 809 395.5 806 424.5 800 c 0
 453.5 794 476.5 789 494.5 787 c 1
 487.5 648 l 1
 436.5 648 l 1
 464.5 719 l 1
 461.5 722 452.5 759 434.5 768 c 0
 417.5 777 391.5 774 383.5 776 c 0
 380.924242424 776.757575758 378.187786961 777.078971534 375.304546846 777.078971534 c 0
 359.158402204 777.078971534 338.409090909 767 315.5 767 c 0
 283.5 767 254.5 758 228.5 740 c 0
 202.5 722 161.5 700 146.5 664 c 0
 131.5 628 105.5 573 105.5 521 c 0
 105.5 474 122.5 428 135.5 389 c 0
 148.5 350 195.5 325 221.5 301 c 0
 247.5 277 279.5 265 319.5 265 c 0
 348.5 265 371.5 268 385.5 273 c 0
 400.5 278 451.5 292 460.5 300 c 1
 452.5 371 l 1
 500.5 364 l 1
 482.5 252 l 1
 468.5 251 454.5 249 440.5 244 c 0
 426.5 239 410.5 235 391.5 230 c 0
 372.5 225 347.5 223 316.5 223 c 0
EndSplineSet
Validated: 2621441
EndChar

StartChar: 
Encoding: 68 68 4
Width: 552
VWidth: 1048
Flags: HW
HStem: 231 37<15 19.3646 162 333.876> 767 41<19 29.6851 162 363.78>
VStem: 86 76<270.344 764.203> 487 50<401.288 655.072>
LayerCount: 2
Fore
SplineSet
86 249 m 1
 88 781 l 1
 19 764 l 1
 19 803 l 1
 120 803 l 2
 144 803 166 803 188 805 c 0
 210 807 233 808 256 808 c 0
 322 808 374 798 416 775 c 0
 458 753 489 721 508 680 c 0
 528 639 537 591 537 535 c 0
 537 473 526 418 501 371 c 0
 477 324 442 288 398 262 c 0
 355.689811658 236.998525071 306.906966155 224.942364462 251.651463492 224.942364462 c 0
 249.444633501 224.942364462 247.227479004 224.96159519 245 225 c 0
 226 226 206 227 184 229 c 0
 162 231 141 231 121 231 c 2
 15 231 l 1
 15 269 l 1
 86 249 l 1
162 274 m 1
 178 271 192 269 207 268 c 0
 212 267.666666667 217 267.555555556 222.037037037 267.555555556 c 0
 232.111111111 267.555555556 242.333333333 268 253 268 c 0
 291 269 325 278 354 297 c 0
 383 316 445 345 462 382 c 0
 479 419 487 466 487 521 c 0
 487 601 471 662 436 704 c 0
 401 747 309 767 237 767 c 0
 221 767 207 767 194 765 c 0
 181 764 171 763 162 762 c 1
 162 274 l 1
EndSplineSet
Validated: 2621441
EndChar

StartChar: 
Encoding: 69 69 5
Width: 552
VWidth: 1048
Flags: HW
HStem: 212 46<176.5 425.5> 212 38<62.5 122.532> 745 39<63.5 71.8058 176.5 399.5>
VStem: 129.5 47<258 488 530 746> 251.5 43<420 443.013> 421.5 45<284.965 318>
LayerCount: 2
Fore
SplineSet
129.5 242 m 1x7c
 127.5 754 l 1
 63.5 745 l 1
 63.5 784 l 1
 455.5 784 l 1
 426.5 683 l 1
 382.5 683 l 1
 399.5 739 l 1
 176.5 746 l 1
 176.5 530 l 1
 236.5 515 l 1
 270.5 525 l 1
 251.5 597 l 1
 274.5 590 l 1
 294.5 597 l 1
 294.5 420 l 1
 251.5 420 l 1
 270.5 481 l 1
 207.5 504 l 1
 176.5 488 l 1
 176.5 258 l 1xbc
 425.5 263 l 1
 421.5 331 l 1
 466.5 318 l 1
 489.5 212 l 1
 62.5 212 l 1
 62.5 250 l 1
 129.5 242 l 1x7c
EndSplineSet
Validated: 2621441
EndChar

StartChar: 
Encoding: 70 70 6
Width: 552
VWidth: 1048
Flags: HW
HStem: 220 38<74.5 90.651 171.5 338.5> 481 43<171.5 237.605> 753 39<70.5 75.8728 171.5 415.5>
VStem: 139.5 32<261 481 524 748> 243.5 41<415 463.873 555.3 595>
LayerCount: 2
Fore
SplineSet
136.5 242 m 1
 139.5 768 l 1
 70.5 753 l 1
 70.5 792 l 1
 481.5 792 l 1
 436.5 689 l 1
 386.5 689 l 1
 415.5 747 l 1
 171.5 748 l 1
 171.5 524 l 1
 256.5 523 l 1
 243.5 595 l 1
 284.5 595 l 1
 284.5 415 l 1
 243.5 415 l 1
 254.5 490 l 1
 171.5 481 l 1
 171.5 261 l 1
 338.5 258 l 1
 338.5 220 l 1
 74.5 220 l 1
 74.5 258 l 1
 136.5 242 l 1
EndSplineSet
Validated: 2621441
EndChar

StartChar: 
Encoding: 71 71 7
Width: 552
VWidth: 1048
Flags: HW
HStem: 219 41<202.019 387.975> 473 44<315.5 361.46 489.324 539.5> 764 41<181.457 402.455>
VStem: 12.5 50<377.448 637.736>
LayerCount: 2
Fore
SplineSet
276.5 219 m 0
 217.5 219 168.5 232 129.5 257 c 0
 90.5 282 60.5 316 41.5 359 c 0
 22.5 402 12.5 451 12.5 505 c 0
 12.5 569 24.5 623 48.5 668 c 0
 72.5 713 105.5 747 148.5 770 c 0
 191.5 793 242.5 805 301.5 805 c 0
 328.5 805 354.5 804 379.5 801 c 0
 404.5 798 427.5 794 446.5 790 c 0
 451.731884058 788.898550725 453.627494224 777.86410418 453.627494224 762.450523426 c 0
 453.627494224 721.888468809 440.5 651 440.5 651 c 1
 385.5 651 l 1
 408.5 740 l 1
 403.5 744 391.5 749 372.5 755 c 0
 353.5 761 327.5 764 295.5 764 c 0
 235.5 764 144.5 746 111.5 705 c 0
 78.5 665 62.5 605 62.5 525 c 0
 62.5 490 65.5 457 71.5 425 c 0
 77.5 394 87.5 367 101.5 342 c 0
 115.5 317 178.5 295 200.5 281 c 0
 223.5 267 250.5 260 283.5 260 c 0
 308.5 260 332.5 263 354.5 269 c 0
 377.5 275 396.5 283 412.5 293 c 1
 424.5 490 l 1
 315.5 473 l 1
 315.5 517 l 1
 539.5 517 l 1
 539.5 473 l 1
 455.5 485 l 1
 455.5 485 456.020291363 461.066597294 456.020291363 428.405726562 c 0
 456.020291363 359.817898023 453.725806452 252.741935484 439.5 248 c 0
 418.5 242 395.5 234 368.5 228 c 0
 341.5 222 310.5 219 276.5 219 c 0
EndSplineSet
Validated: 2621441
EndChar

StartChar: 
Encoding: 72 72 8
Width: 552
VWidth: 1048
Flags: HW
HStem: 225 38<23.5 71.302 137.5 203.5 342.5 407.5 480.698 528.5> 758 39<25.5 73.2867 155.908 202.5 343.5 385.205 478.713 526.5>
VStem: 85.5 52<271 493 540 748> 407.5 59<271 493 540 747>
LayerCount: 2
Fore
SplineSet
85.5 271 m 1
 85.5 749 l 1
 25.5 758 l 1
 25.5 797 l 1
 202.5 795 l 1
 202.5 757 l 1
 137.5 748 l 1
 137.5 540 l 1
 205.5 518 l 1
 407.5 540 l 1
 407.5 747 l 1
 343.5 757 l 1
 343.5 795 l 1
 526.5 797 l 1
 526.5 758 l 1
 466.5 749 l 1
 466.5 271 l 1
 528.5 263 l 1
 528.5 225 l 1
 342.5 224 l 1
 342.5 262 l 1
 407.5 269 l 1
 407.5 493 l 1
 318.5 516 l 1
 137.5 493 l 1
 137.5 269 l 1
 203.5 262 l 1
 203.5 224 l 1
 23.5 225 l 1
 23.5 263 l 1
 85.5 271 l 1
EndSplineSet
Validated: 2621441
EndChar

StartChar: 
Encoding: 73 73 9
Width: 306
VWidth: 1048
Flags: HW
HStem: 220 40<41.5 154.5 206.481 266.5> 752 39<41.5 98.0476 188.5 266.5>
VStem: 41.5 225<220 257 752 791>
LayerCount: 2
Fore
SplineSet
154.5 260 m 1
 112.5 743 l 1
 41.5 752 l 1
 41.5 791 l 1
 266.5 791 l 1
 266.5 752 l 1
 188.5 748 l 1
 144.5 718 l 1
 194.5 265 l 1
 266.5 257 l 1
 266.5 220 l 1
 41.5 220 l 1
 41.5 258 l 1
 154.5 260 l 1
EndSplineSet
EndChar

StartChar: 
Encoding: 74 74 10
Width: 552
VWidth: 1048
Flags: HW
HStem: 100 32<157.796 175.813> 770 39<213.5 267.26 359.607 410.5>
VStem: 288.5 51<209.627 760>
LayerCount: 2
Fore
SplineSet
141.5 132 m 1
 162.5 138 182.5 150 201.5 167 c 0
 220.5 184 259.5 183 267.5 209 c 0
 271.5 222 280.5 259 282.5 274 c 0
 284.5 290 285.5 309 286.5 332 c 0
 287.5 355 288.5 383 288.5 418 c 2
 288.5 760 l 1
 213.5 770 l 1
 213.5 809 l 1
 410.5 809 l 1
 410.5 770 l 1
 339.5 760 l 1
 339.5 449 l 2
 339.5 419.666666667 339.944444444 392.555555556 339.944444444 368.259259259 c 0
 339.944444444 356.111111111 339.833333333 344.666666667 339.5 334 c 0
 338.5 302 336.5 274 331.5 252 c 0
 325.5 223 313.5 198 296.5 177 c 0
 279.5 156 259.5 139 236.5 126 c 0
 213.5 113 188.5 105 162.5 100 c 1
 141.5 132 l 1
EndSplineSet
Validated: 2621441
EndChar

StartChar: 
Encoding: 75 75 11
Width: 552
VWidth: 1048
Flags: HW
HStem: 221 37<450.828 479.5> 232 38<43.5 73.516 195.642 227.5> 759 39<44.5 72.276 155.5 221.5 318.5 363.3 446.377 508.5>
VStem: 110.5 47<481 765>
LayerCount: 2
Fore
SplineSet
423.5 227 m 2xb0
 416.5 228 407.5 234 396.5 248 c 0
 385.5 263 373.5 282 360.5 305 c 0
 347.5 328 334.5 352 320.5 378 c 0
 306.5 404 292.5 429 277.5 452 c 0
 263.5 475 248.5 494 235.5 509 c 1
 157.5 420 l 1
 147.5 252 l 1
 227.5 264 l 1
 227.5 227 l 1
 43.5 232 l 1
 43.5 270 l 1x70
 110.5 254 l 1
 106.5 775 l 1
 44.5 764 l 1
 44.5 803 l 1
 221.5 798 l 1
 221.5 759 l 1
 155.5 765 l 1
 157.5 481 l 1
 393.5 771 l 1
 318.5 759 l 1
 318.5 798 l 1
 508.5 798 l 1
 508.5 759 l 1
 430.5 768 l 1
 266.5 543 l 1
 318.5 432 385.5 327 443.5 267 c 1
 479.5 258 l 1
 479.5 221 l 1
 423.5 227 l 2xb0
EndSplineSet
Validated: 2621441
EndChar

StartChar: 
Encoding: 76 76 12
Width: 552
VWidth: 1048
Flags: HW
HStem: 221 54<172.5 414.5> 221 38<72.5 136.5> 753 39<73.5 123.676> 762 39<194.023 248.5>
VStem: 136.5 36<275 744>
LayerCount: 2
Fore
SplineSet
136.5 266 m 1x48
 136.5 744 l 1
 73.5 753 l 1
 73.5 792 l 1x68
 248.5 801 l 1
 248.5 762 l 1
 172.5 752 l 1
 172.5 275 l 1x98
 414.5 273 l 1
 388.5 339 l 1
 435.5 332 l 1
 479.5 221 l 1
 72.5 221 l 1
 72.5 259 l 1
 136.5 266 l 1x48
EndSplineSet
Validated: 2621441
EndChar

StartChar: 
Encoding: 77 77 13
Width: 634
VWidth: 1048
Flags: HW
HStem: 234 38<-40.5 20.5 79.5 158.5 489.5 554.5 651.987 674.5> 767 39<22.5 79.5 564.948 620.5>
LayerCount: 2
Fore
SplineSet
20.5 267 m 1
 79.5 772 l 1
 22.5 769 l 1
 22.5 808 l 1
 204.5 806 l 1
 290.5 450 l 1
 316.5 352 l 1
 339.5 450 l 1
 465.5 806 l 1
 620.5 806 l 1
 620.5 767 l 1
 558.5 775 l 1
 601.5 252 l 1
 674.5 273 l 1
 674.5 235 l 1
 489.5 234 l 1
 489.5 272 l 1
 554.5 266 l 1
 523.5 625 l 1
 509.5 774 l 1
 477.5 663 l 1
 348.5 260 l 1
 297.5 260 l 1
 176.5 629 l 1
 134.5 774 l 1
 119.5 625 l 1
 79.5 267 l 1
 158.5 272 l 1
 158.5 234 l 1
 -40.5 234 l 1
 -40.5 272 l 1
 20.5 267 l 1
EndSplineSet
Validated: 2621441
EndChar

StartChar: 
Encoding: 78 78 14
Width: 552
VWidth: 1048
Flags: HW
HStem: 224 38<27.5 82.156 148.092 213.5> 754 38<27.5 57.5 343.5 374.528 496.25 524.5>
VStem: 88.5 52<270 710> 410.5 53<336 745>
LayerCount: 2
Fore
SplineSet
88.5 270 m 1
 88.5 748 l 1
 78.5 749 67.5 750 57.5 752 c 2
 27.5 757 l 1
 27.5 796 l 1
 171.5 796 l 1
 366.5 417 l 1
 410.5 336 l 1
 410.5 745 l 1
 343.5 754 l 1
 343.5 792 l 1
 524.5 792 l 1
 524.5 754 l 1
 463.5 745 l 1
 463.5 221 l 1
 402.5 221 l 1
 200.5 608 l 1
 140.5 710 l 1
 140.5 270 l 1
 213.5 262 l 1
 213.5 224 l 1
 27.5 224 l 1
 27.5 262 l 1
 88.5 270 l 1
EndSplineSet
Validated: 2621441
EndChar

StartChar: 
Encoding: 79 79 15
Width: 552
VWidth: 1048
Flags: HW
HStem: 230 40<199.887 350.508> 776 40<198.998 357.373>
VStem: 28.5 52<365.311 656.119> 455.5 68<399.359 658.465>
LayerCount: 2
Fore
SplineSet
266.5 230 m 0
 264.384615385 229.961538462 262.284023669 229.942307692 260.198111061 229.942307692 c 0
 208.050295858 229.942307692 165.076923077 241.961538462 129.5 266 c 0
 92.5 291 65.5 325 47.5 369 c 0
 29.5 413 28.5 460 28.5 517 c 0
 28.5 577 30.5 634 53.5 678 c 0
 76.5 722 107.5 756 146.5 780 c 0
 185.5 804 229.5 816 278.5 816 c 0
 332.5 816 378.5 805 414.5 781 c 0
 450.5 757 477.5 724 495.5 681 c 0
 513.5 638 523.5 588 523.5 530 c 0
 523.5 470 512.5 418 490.5 373 c 0
 468.5 328 437.5 294 398.5 269 c 0
 359.5 244 315.5 231 266.5 230 c 0
272.5 776 m 0
 224.5 776 154.5 741 124.5 699 c 0
 95.5 657 80.5 593 80.5 507 c 0
 80.5 456 86.5 412 98.5 374 c 0
 111.5 337 160.5 322 184.5 301 c 0
 208.5 280 236.5 270 270.5 270 c 0
 318.5 270 374.5 292 403.5 336 c 0
 432.5 380 455.5 444 455.5 530 c 0
 455.5 607 434.5 669 406.5 713 c 0
 379.5 757 323.5 776 272.5 776 c 0
EndSplineSet
Validated: 2621441
EndChar

StartChar: 
Encoding: 80 80 16
Width: 552
VWidth: 1048
Flags: HW
HStem: 228 38<73.5 104.561 213.953 288.5> 439 42<182.5 335.423> 760 39<77.5 121.532 197.097 348.912> 774 24<119.468 163.5 196.5 256.485>
VStem: 138.5 46<256 400.955> 392.5 86<542.769 721.048>
LayerCount: 2
Fore
SplineSet
138.5 251 m 1xec
 163.5 774 l 1xdc
 77.5 760 l 1
 77.5 799 l 1xec
 142.5 798 l 2xdc
 158.5 798 171.5 798 183.5 799 c 0
 195.5 800 207.5 801 221.5 802 c 0
 235.5 803 253.5 803 275.5 803 c 0
 327.5 803 368.5 796 397.5 783 c 0
 427.5 770 448.5 752 460.5 727 c 0
 472.5 703 478.5 674 478.5 639 c 0
 478.5 597 468.5 561 449.5 531 c 0
 430.5 501 405.5 478 371.5 462 c 0
 338.5 446 299.5 439 256.5 439 c 0
 247.5 439 237.5 439 226.5 439 c 0
 215.5 440 206.5 440 198.5 440 c 0
 190.5 441 184.5 441 182.5 442 c 1
 184.5 256 l 1
 288.5 265 l 1
 288.5 227 l 1
 73.5 228 l 1
 73.5 266 l 1
 138.5 251 l 1xec
182.5 484 m 1
 188.5 483 198.5 482 211.5 481 c 0
 224.5 481 239.5 481 256.5 481 c 0
 280.5 481 302.5 486 323.5 495 c 0
 344.5 504 360.5 520 373.5 543 c 0
 386.5 566 392.5 598 392.5 638 c 0
 392.5 683 380.5 715 358.5 734 c 0
 336.5 753 302.5 762 256.5 762 c 0
 205.5 762 209.5 771 196.5 771 c 1
 182.5 484 l 1
EndSplineSet
Validated: 2621441
EndChar

StartChar: 
Encoding: 82 82 17
Width: 552
VWidth: 1048
Flags: HW
HStem: 221 45<81.5 90.5791 422.064 485.484> 221 37<191.867 246.5 462.516 488.5> 473 41<170.5 290.415> 758 41<67.5 86.47 170.5 325.77>
VStem: 137.5 33<251 473 514.053 754.453> 368.5 48<561.477 719.193>
LayerCount: 2
Fore
SplineSet
63.5 263 m 1x7c
 131.5 248 l 1
 137.5 766 l 1
 67.5 757 l 1
 67.5 795 l 1
 128.5 793 l 2
 133.454592315 792.816496581 138.274490611 792.734013676 142.96587409 792.734013676 c 0
 163.840136763 792.734013676 182.170068381 794.367006838 198.5 796 c 0
 214.829931619 797.632993162 229.826529904 799.265986324 244.03412591 799.265986324 c 0
 247.227210247 799.265986324 250.380441876 799.183503419 253.5 799 c 0
 322.5 794 346.5 769 397.5 732 c 1
 410.5 710 416.5 682 416.5 649 c 0
 416.5 626 412.5 603 403.5 581 c 0
 394.5 559 382.5 540 365.5 523 c 1
 343.5 512 343.5 521 341.5 487 c 1
 354.412899542 412.502502644 403.831657422 265.97993343 458.395177165 265.97993343 c 0
 458.763220575 265.97993343 459.131498061 265.986599929 459.5 266 c 1xbc
 488.5 258 l 1
 488.5 221 l 1
 387.5 221 l 2
 381.5 221 374.5 226 366.5 237 c 0
 365.70944121 238.242306671 365.365298991 239.548387137 365.365298991 240.912479464 c 0
 365.365298991 250.092527859 380.95150323 261.899933954 380.95150323 274.578505725 c 0
 380.95150323 276.697404235 380.516171817 278.840634889 379.5 281 c 0
 371.5 299 361.5 317 352.5 337 c 0
 343.5 357 334.5 377 325.5 396 c 0
 316.5 415 306.5 431 296.5 445 c 0
 286.5 459 276.5 469 267.5 473 c 1
 235.5 473 l 1
 196.5 473 l 2
 183.5 473 175.5 473 170.5 473 c 1
 172.5 251 l 1
 246.5 260 l 1
 246.5 222 l 1
 81.5 217 l 1
 63.5 263 l 1x7c
261.5 514 m 1
 293.5 514 318.5 524 338.5 545 c 0
 358.5 566 368.5 599 368.5 643 c 0
 368.5 666 364.5 686 356.5 703 c 0
 348.5 720 335.5 734 316.5 743 c 0
 297.5 752 271.5 758 238.5 758 c 0
 227.5 758 216.5 757 204.5 756 c 0
 192.5 755 181.5 754 170.5 753 c 1
 170.5 515 l 1
 177.5 514 187.5 514 199.5 514 c 2
 235.5 514 l 1
 261.5 514 l 1
EndSplineSet
Validated: 2621441
EndChar

StartChar: 
Encoding: 83 83 18
Width: 552
VWidth: 1048
Flags: HW
HStem: 231 41<186.537 359.72> 776 41<214.938 377.518>
VStem: 107.245 48<352.8 404> 393.245 47<660 705.397>
LayerCount: 2
Fore
SplineSet
274.245117188 231 m 0
 244.245117188 231 218.245117188 233 195.245117188 239 c 0
 172.245117188 244 153.245117188 250 137.245117188 256 c 0
 121.245117188 262 109.245117188 265 101.245117188 266 c 1
 107.245117188 404 l 1
 155.245117188 404 l 1
 169.245117188 304 l 1
 177.245117188 296 191.245117188 289 210.245117188 282 c 0
 229.245117188 275 252.245117188 272 277.245117188 272 c 0
 319.245117188 272 350.245117188 281 368.245117188 299 c 0
 387.058177548 317.259735056 396.38000223 344.092199111 396.38000223 369.840965399 c 0
 396.38000223 390.626789284 390.30533396 410.706409751 378.245117188 425 c 0
 366.245117188 439 351.245117188 452 330.245117188 463 c 0
 284.245117188 489 260.245117188 494 210.245117188 520 c 0
 173.245117188 539 142.245117188 567 122.245117188 603 c 0
 113.497728991 618.951119652 106.603688898 642.845159745 106.603688898 669.096488615 c 0
 106.603688898 693.862969951 112.73989358 720.727612341 129.245117188 745 c 0
 144.245117188 767 166.245117188 784 194.245117188 797 c 0
 222.245117188 810 257.245117188 817 296.245117188 817 c 0
 321.245117188 817 343.245117188 815 363.245117188 811 c 0
 383.245117188 807 399.245117188 803 413.245117188 798 c 0
 427.245117188 793 438.245117188 790 445.245117188 789 c 1
 440.245117188 660 l 1
 393.245117188 660 l 1
 378.245117188 755 l 1
 373.245117188 760 363.245117188 764 347.245117188 769 c 0
 331.245117188 774 314.245117188 776 293.245117188 776 c 0
 256.245117188 776 230.245117188 769 212.245117188 754 c 0
 198.494261357 742.213552145 153.014682918 695.69701603 153.014682918 648.702801574 c 0
 153.014682918 623.928500985 165.654199 599.0214458 202.245117188 579 c 0
 254.245117188 551 332.245117188 508 389.245117188 478 c 1
 448.245117188 467 442.245117188 449 443.245117188 379 c 1
 448.467674951 365.725999018 450.754370224 354.819629076 450.754370224 345.343204194 c 0
 450.754370224 311.27119793 421.193673969 295.684458179 392.245117188 255 c 1
 362.245117188 239 322.245117188 231 274.245117188 231 c 0
EndSplineSet
Validated: 2621441
EndChar

StartChar: 
Encoding: 84 84 19
Width: 552
VWidth: 1048
Flags: HW
HStem: 230 38<175.5 198.511 311.5 378.5> 701 98<79.5 120.5 431.5 460.5> 754 45<120.5 250.5 287.5 431.5>
VStem: 79.5 50<701 731.542> 250.5 37<609.355 756> 272.5 39<265 410.448>
LayerCount: 2
Fore
SplineSet
272.5 242 m 1xb4
 250.5 759 l 1
 120.5 754 l 1xb8
 129.5 701 l 1
 79.5 701 l 1xd8
 56.5 799 l 1
 495.5 797 l 1
 460.5 705 l 1
 411.5 705 l 1
 431.5 752 l 1
 287.5 756 l 1xb8
 311.5 265 l 1
 378.5 269 l 1
 378.5 231 l 1
 175.5 230 l 1
 175.5 268 l 1
 272.5 242 l 1xb4
EndSplineSet
Validated: 2621441
EndChar

StartChar: 
Encoding: 85 85 20
Width: 552
VWidth: 1048
Flags: HW
HStem: 220 42<191.933 346.813> 758 39<26.5 49.9384 151.408 191.5 364.5 405.62 485.585 514.556>
VStem: 81.5 45<332.967 768> 429.5 39<370.193 767>
LayerCount: 2
Fore
SplineSet
261.5 220 m 0
 185.5 220 161.5 238 125.5 278 c 0
 90.5 318 81.5 382 81.5 467 c 2
 83.5 773 l 1
 26.5 758 l 1
 26.5 797 l 1
 191.5 797 l 1
 191.5 758 l 1
 126.5 768 l 1
 126.5 459 l 2
 126.5 410 131.5 372 143.5 343 c 0
 155.5 314 172.5 294 194.5 281 c 0
 216.5 268 242.5 262 271.5 262 c 0
 318.5 262 353.5 279 376.5 312 c 0
 399.5 346 430.5 392 429.5 453 c 2
 424.5 767 l 1
 364.5 757 l 1
 364.5 796 l 1
 525.5 797 l 1
 512.5 757 l 1
 464.5 769 l 1
 468.5 458 l 2
 468.550125629 455.19296478 468.575125471 452.413567925 468.575125471 449.661683491 c 0
 468.575125471 397.513819183 459.597738679 355.245602987 442.5 322 c 0
 424.5 287 399.5 261 367.5 244 c 0
 336.5 228 301.5 220 261.5 220 c 0
EndSplineSet
Validated: 2621473
EndChar

StartChar: 
Encoding: 86 86 21
Width: 552
VWidth: 1048
Flags: HW
HStem: 221 21G<227.759 306.252> 748 50<32.5 52.0317> 759 39<125.5 195.5 361.5 422.5 483.5 532.5>
LayerCount: 2
Fore
SplineSet
19.5 748 m 1xc0
 32.5 798 l 1xc0
 195.5 798 l 1
 195.5 759 l 1
 125.5 761 l 1
 252.5 390 l 1
 280.5 296 l 1
 306.5 391 l 1
 422.5 766 l 1
 361.5 759 l 1
 361.5 798 l 1
 532.5 798 l 1
 532.5 759 l 1xa0
 483.5 766 l 1
 299.5 221 l 1
 233.5 221 l 1
 78.5 761 l 1
 19.5 748 l 1xc0
EndSplineSet
Validated: 2621441
EndChar

StartChar: 
Encoding: 90 90 22
Width: 552
VWidth: 1048
Flags: HW
HStem: 219 21G<80.1471 457.5> 744 48<186.5 369.682> 753 39<233.318 416.5>
LayerCount: 2
Fore
SplineSet
371.5 697 m 1xa0
 416.5 753 l 1xa0
 186.5 744 l 1xc0
 211.5 688 l 1
 167.5 693 l 1
 120.5 792 l 1
 462.5 792 l 1
 480.5 759 l 1
 171.5 321 l 1
 121.5 262 l 1
 389.5 276 l 1
 348.5 340 l 1
 394.5 331 l 1
 457.5 222 l 1
 92.5 219 l 1
 71.5 253 l 1
 371.5 697 l 1xa0
EndSplineSet
Validated: 2621441
EndChar

StartChar: 
Encoding: 262 262 23
Width: 552
VWidth: 1048
Flags: HW
HStem: 222 42<241.823 437.851> 766 42<240.061 425.494>
VStem: 51.5 60<377.426 634.744> 436.5 51<646 675.355>
LayerCount: 2
Fore
SplineSet
316.5 222 m 0
 259.5 222 210.5 233 171.5 257 c 0
 132.5 281 102.5 314 81.5 358 c 0
 61.5 402 51.5 453 51.5 512 c 0
 51.5 556 58.5 596 72.5 632 c 0
 86.5 668 106.5 700 131.5 726 c 0
 156.5 752 185.5 772 219.5 786 c 0
 253.5 800 289.5 808 328.5 808 c 0
 363.5 808 395.5 804 424.5 798 c 0
 453.5 792 476.5 788 494.5 786 c 1
 487.5 646 l 1
 436.5 646 l 1
 457.5 732 l 1
 451.5 738 398.5 754 381.5 759 c 0
 364.5 764 342.5 766 315.5 766 c 0
 283.5 766 254.5 756 228.5 738 c 0
 202.5 720 149.5 684 134.5 648 c 0
 119.5 612 111.5 568 111.5 516 c 0
 111.5 469 117.5 424 130.5 385 c 0
 143.5 346 195.5 323 221.5 299 c 0
 247.5 275 279.5 264 319.5 264 c 0
 348.5 264 371.5 266 385.5 271 c 0
 400.5 276 444.5 284 453.5 292 c 1
 452.5 369 l 1
 500.5 363 l 1
 482.5 251 l 1
 468.5 250 454.5 247 440.5 242 c 0
 426.5 237 410.5 234 391.5 229 c 0
 372.5 224 347.5 222 316.5 222 c 0
293.5 846 m 2
 292.5 846 l 1
 260.5 870 l 1
 359.5 995 l 1
 420.5 949 l 1
 419.674311927 949.073394495 418.836166989 949.109418399 417.986300307 949.109418399 c 0
 372.518432792 949.109418399 293.5 846 293.5 846 c 2
EndSplineSet
Validated: 2621441
EndChar

StartChar: 
Encoding: 268 268 24
Width: 552
VWidth: 1048
Flags: HW
HStem: 213 42<241.823 426.356> 757 42<240.061 437.612>
VStem: 51.5 70<372.569 625.918> 436.5 51<637 676.213>
LayerCount: 2
Fore
SplineSet
316.5 213 m 0
 259.5 213 210.5 224 171.5 248 c 0
 132.5 272 102.5 305 81.5 349 c 0
 61.5 393 51.5 444 51.5 503 c 0
 51.5 547 58.5 587 72.5 623 c 0
 86.5 659 106.5 691 131.5 717 c 0
 156.5 743 185.5 763 219.5 777 c 0
 253.5 791 289.5 799 328.5 799 c 0
 363.5 799 395.5 795 424.5 789 c 0
 453.5 783 476.5 779 494.5 777 c 1
 487.5 637 l 1
 436.5 637 l 1
 453.5 730 l 1
 447.5 736 398.5 745 381.5 750 c 0
 364.5 755 342.5 757 315.5 757 c 0
 283.5 757 254.5 747 228.5 729 c 0
 202.5 711 159.5 679 144.5 643 c 0
 129.5 607 121.5 562 121.5 510 c 0
 121.5 463 127.5 419 140.5 380 c 0
 153.5 341 195.5 314 221.5 290 c 0
 247.5 266 279.5 255 319.5 255 c 0
 348.5 255 371.5 257 385.5 262 c 0
 400.5 267 443.5 280 452.5 288 c 1
 452.5 360 l 1
 500.5 354 l 1
 482.5 242 l 1
 468.5 241 454.5 239 440.5 234 c 0
 426.5 229 410.5 225 391.5 220 c 0
 372.5 215 347.5 213 316.5 213 c 0
211.5 976 m 1
 312.5 900 l 1
 414.5 976 l 1
 444.5 951 l 1
 390.5 934 357.5 899 346.5 844 c 1
 311.5 860 l 1
 279.5 844 l 1
 268.5 889 236.5 926 181.5 952 c 1
 211.5 976 l 1
EndSplineSet
Validated: 2621441
EndChar

StartChar: 
Encoding: 272 272 25
Width: 552
VWidth: 1048
Flags: HW
HStem: 226 38<15 23.4311 162 336.23> 759 38<19 60.99 162 236.251> 762 41<37.0267 84 162.423 372.535>
VStem: 85 77<265.344 480 505 514 529 758.377> 485 52<395.981 654.141>
LayerCount: 2
Fore
SplineSet
85 246 m 1xb8
 78 480 l 1
 21 474 l 1
 21 519 l 1
 82 505 l 1
 84 767 l 1
 19 759 l 1
 19 797 l 1
 120 797 l 2xd8
 144 797 166 798 188 800 c 0
 210 802 233 803 256 803 c 0
 322 803 374 792 416 769 c 0
 458 747 489 715 508 674 c 0
 528 633 537 586 537 530 c 0
 537 468 526 413 501 366 c 0
 477 319 442 283 398 257 c 0
 355.689811658 231.998525071 306.906966155 219.942364462 251.651463492 219.942364462 c 0
 249.444633501 219.942364462 247.227479004 219.96159519 245 220 c 0
 226 221 206 221 184 223 c 0
 162 225 141 226 121 226 c 2
 15 226 l 1
 15 264 l 1
 85 246 l 1xb8
162 269 m 1
 178 266 192 264 207 263 c 0
 212 262.666666667 217 262.555555556 222.037037037 262.555555556 c 0
 232.111111111 262.555555556 242.333333333 263 253 263 c 0
 291 264 325 273 354 292 c 0
 383 311 443 345 460 382 c 0
 477 419 485 466 485 521 c 0
 485 601 468 662 433 704 c 0
 398 747 309 762 237 762 c 0xb8
 221 762 207 761 194 759 c 0
 181 758 171 758 162 757 c 1
 160 529 l 1
 273 543 l 1
 273 498 l 1
 164 514 l 1
 162 269 l 1
EndSplineSet
Validated: 2621441
EndChar

StartChar: 
Encoding: 352 352 26
Width: 402
VWidth: 1048
Flags: HW
HStem: 214 42<95.3947 270.103> 760 40<126.816 286.51>
VStem: 17 79<615.566 727.037> 17 49<336.8 388> 303 48<643 691.64> 306 85<298.641 412.61>
LayerCount: 2
Fore
SplineSet
185 214 m 0xe4
 155 214 128 216 105 222 c 0
 82 227 63 233 47 239 c 0
 31 245 19 248 11 249 c 1
 17 388 l 1
 66 388 l 1
 80 288 l 1
 88 280 101 273 120 266 c 0
 139 259 162 256 187 256 c 0
 229 256 260 265 278 283 c 0
 296 301 306 325 306 355 c 0xd4
 306 376 300 394 288 408 c 0
 276 422 261 435 240 446 c 0
 220 457 197 469 171 480 c 0
 155 487 138 494 120 503 c 0
 102 512 86 525 70 538 c 0
 54 552 42 567 32 586 c 0
 22 605 17 627 17 652 c 0
 17 680 25 706 40 728 c 0
 55 750 77 768 105 781 c 0
 133 794 168 800 207 800 c 0
 232 800 253 798 273 794 c 0
 293 790 309 786 323 781 c 0
 337 776 348 774 355 773 c 1
 351 643 l 1
 303 643 l 1xe8
 289 738 l 1
 284 743 274 748 258 753 c 0
 242 758 224 760 203 760 c 0
 166 760 140 752 122 737 c 0
 105 722 96 701 96 673 c 0
 96 651 102 634 114 620 c 0
 126 606 141 592 162 581 c 0
 183 570 206 558 232 546 c 0
 250 538 268 529 287 519 c 0
 306 509 322 498 338 485 c 0
 354 472 366 456 376 439 c 0
 386 422 391 401 391 378 c 0
 391 352 384 326 370 301 c 0
 356 276 332 255 302 239 c 0
 272 223 233 214 185 214 c 0xe4
113 977 m 1
 215 901 l 1
 316 977 l 1
 346 952 l 1
 269 922 246 885 248 845 c 1
 211 863 l 1
 181 845 l 1
 157 888 135 934 83 953 c 1
 98 965 l 1
 113 977 l 1
EndSplineSet
Validated: 2097185
EndChar

StartChar: 
Encoding: 381 381 27
Width: 552
VWidth: 1048
Flags: HW
HStem: 743 48<186.5 369.682> 752 39<233.318 416.5>
LayerCount: 2
Fore
SplineSet
190.5 979 m 1x00
 292.5 903 l 1
 393.5 979 l 1
 423.5 954 l 1
 358.415067694 943.314414099 325.414262376 909.037558353 325.414262376 852.086111092 c 0
 325.414262376 850.410364143 325.4428338 848.714985995 325.5 847 c 1
 291.5 869 l 1
 258.5 847 l 1
 236.5 901 204.5 937 160.5 955 c 1
 190.5 979 l 1x00
371.5 695 m 1
 416.5 752 l 1x40
 186.5 743 l 1x80
 221.5 688 l 1
 177.5 693 l 1
 120.5 791 l 1
 462.5 791 l 1x40
 480.5 758 l 1
 171.5 319 l 1
 121.5 261 l 1
 389.5 275 l 1
 366.5 348 l 1
 411.5 338 l 1
 457.5 220 l 1
 92.5 218 l 1
 71.5 252 l 1
 371.5 695 l 1
EndSplineSet
Validated: 2621441
EndChar

